<svg x="0" y="0" width="104" height="104" shape-rendering="crispEdges" xmlns:xlink="http://www.w3.org/1999/xlink" viewBox="0 0 320 320"><g id="clip-path-background-color-23" fill="#FFFFFF"><rect x="0" y="0" width="320" height="320"></rect></g><g id="clip-path-dot-color-23" fill="#000000"><rect x="88" y="0" width="11" height="11" transform="rotate(0,93.5,5.5)"></rect><rect x="121" y="0" width="11" height="11" transform="rotate(0,126.5,5.5)"></rect><rect x="132" y="0" width="11" height="11" transform="rotate(0,137.5,5.5)"></rect><rect x="143" y="0" width="11" height="11" transform="rotate(0,148.5,5.5)"></rect><rect x="209" y="0" width="11" height="11" transform="rotate(0,214.5,5.5)"></rect><rect x="99" y="11" width="11" height="11" transform="rotate(0,104.5,16.5)"></rect><rect x="110" y="11" width="11" height="11" transform="rotate(0,115.5,16.5)"></rect><rect x="132" y="11" width="11" height="11" transform="rotate(0,137.5,16.5)"></rect><rect x="154" y="11" width="11" height="11" transform="rotate(0,159.5,16.5)"></rect><rect x="165" y="11" width="11" height="11" transform="rotate(0,170.5,16.5)"></rect><rect x="198" y="11" width="11" height="11" transform="rotate(0,203.5,16.5)"></rect><rect x="220" y="11" width="11" height="11" transform="rotate(0,225.5,16.5)"></rect><rect x="99" y="22" width="11" height="11" transform="rotate(0,104.5,27.5)"></rect><rect x="110" y="22" width="11" height="11" transform="rotate(0,115.5,27.5)"></rect><rect x="121" y="22" width="11" height="11" transform="rotate(0,126.5,27.5)"></rect><rect x="132" y="22" width="11" height="11" transform="rotate(0,137.5,27.5)"></rect><rect x="154" y="22" width="11" height="11" transform="rotate(0,159.5,27.5)"></rect><rect x="176" y="22" width="11" height="11" transform="rotate(0,181.5,27.5)"></rect><rect x="209" y="22" width="11" height="11" transform="rotate(0,214.5,27.5)"></rect><rect x="99" y="33" width="11" height="11" transform="rotate(0,104.5,38.5)"></rect><rect x="110" y="33" width="11" height="11" transform="rotate(0,115.5,38.5)"></rect><rect x="121" y="33" width="11" height="11" transform="rotate(0,126.5,38.5)"></rect><rect x="132" y="33" width="11" height="11" transform="rotate(0,137.5,38.5)"></rect><rect x="165" y="33" width="11" height="11" transform="rotate(0,170.5,38.5)"></rect><rect x="176" y="33" width="11" height="11" transform="rotate(0,181.5,38.5)"></rect><rect x="187" y="33" width="11" height="11" transform="rotate(0,192.5,38.5)"></rect><rect x="220" y="33" width="11" height="11" transform="rotate(0,225.5,38.5)"></rect><rect x="88" y="44" width="11" height="11" transform="rotate(0,93.5,49.5)"></rect><rect x="99" y="44" width="11" height="11" transform="rotate(0,104.5,49.5)"></rect><rect x="132" y="44" width="11" height="11" transform="rotate(0,137.5,49.5)"></rect><rect x="143" y="44" width="11" height="11" transform="rotate(0,148.5,49.5)"></rect><rect x="176" y="44" width="11" height="11" transform="rotate(0,181.5,49.5)"></rect><rect x="209" y="44" width="11" height="11" transform="rotate(0,214.5,49.5)"></rect><rect x="220" y="44" width="11" height="11" transform="rotate(0,225.5,49.5)"></rect><rect x="88" y="55" width="11" height="11" transform="rotate(0,93.5,60.5)"></rect><rect x="121" y="55" width="11" height="11" transform="rotate(0,126.5,60.5)"></rect><rect x="143" y="55" width="11" height="11" transform="rotate(0,148.5,60.5)"></rect><rect x="198" y="55" width="11" height="11" transform="rotate(0,203.5,60.5)"></rect><rect x="220" y="55" width="11" height="11" transform="rotate(0,225.5,60.5)"></rect><rect x="88" y="66" width="11" height="11" transform="rotate(0,93.5,71.5)"></rect><rect x="110" y="66" width="11" height="11" transform="rotate(0,115.5,71.5)"></rect><rect x="132" y="66" width="11" height="11" transform="rotate(0,137.5,71.5)"></rect><rect x="154" y="66" width="11" height="11" transform="rotate(0,159.5,71.5)"></rect><rect x="176" y="66" width="11" height="11" transform="rotate(0,181.5,71.5)"></rect><rect x="198" y="66" width="11" height="11" transform="rotate(0,203.5,71.5)"></rect><rect x="220" y="66" width="11" height="11" transform="rotate(0,225.5,71.5)"></rect><rect x="143" y="77" width="11" height="11" transform="rotate(0,148.5,82.5)"></rect><rect x="154" y="77" width="11" height="11" transform="rotate(0,159.5,82.5)"></rect><rect x="198" y="77" width="11" height="11" transform="rotate(0,203.5,82.5)"></rect><rect x="11" y="88" width="11" height="11" transform="rotate(0,16.5,93.5)"></rect><rect x="22" y="88" width="11" height="11" transform="rotate(0,27.5,93.5)"></rect><rect x="33" y="88" width="11" height="11" transform="rotate(0,38.5,93.5)"></rect><rect x="44" y="88" width="11" height="11" transform="rotate(0,49.5,93.5)"></rect><rect x="55" y="88" width="11" height="11" transform="rotate(0,60.5,93.5)"></rect><rect x="66" y="88" width="11" height="11" transform="rotate(0,71.5,93.5)"></rect><rect x="77" y="88" width="11" height="11" transform="rotate(0,82.5,93.5)"></rect><rect x="132" y="88" width="11" height="11" transform="rotate(0,137.5,93.5)"></rect><rect x="165" y="88" width="11" height="11" transform="rotate(0,170.5,93.5)"></rect><rect x="176" y="88" width="11" height="11" transform="rotate(0,181.5,93.5)"></rect><rect x="187" y="88" width="11" height="11" transform="rotate(0,192.5,93.5)"></rect><rect x="198" y="88" width="11" height="11" transform="rotate(0,203.5,93.5)"></rect><rect x="209" y="88" width="11" height="11" transform="rotate(0,214.5,93.5)"></rect><rect x="220" y="88" width="11" height="11" transform="rotate(0,225.5,93.5)"></rect><rect x="253" y="88" width="11" height="11" transform="rotate(0,258.5,93.5)"></rect><rect x="264" y="88" width="11" height="11" transform="rotate(0,269.5,93.5)"></rect><rect x="308" y="88" width="11" height="11" transform="rotate(0,313.5,93.5)"></rect><rect x="0" y="99" width="11" height="11" transform="rotate(0,5.5,104.5)"></rect><rect x="22" y="99" width="11" height="11" transform="rotate(0,27.5,104.5)"></rect><rect x="33" y="99" width="11" height="11" transform="rotate(0,38.5,104.5)"></rect><rect x="44" y="99" width="11" height="11" transform="rotate(0,49.5,104.5)"></rect><rect x="77" y="99" width="11" height="11" transform="rotate(0,82.5,104.5)"></rect><rect x="88" y="99" width="11" height="11" transform="rotate(0,93.5,104.5)"></rect><rect x="99" y="99" width="11" height="11" transform="rotate(0,104.5,104.5)"></rect><rect x="121" y="99" width="11" height="11" transform="rotate(0,126.5,104.5)"></rect><rect x="154" y="99" width="11" height="11" transform="rotate(0,159.5,104.5)"></rect><rect x="209" y="99" width="11" height="11" transform="rotate(0,214.5,104.5)"></rect><rect x="231" y="99" width="11" height="11" transform="rotate(0,236.5,104.5)"></rect><rect x="242" y="99" width="11" height="11" transform="rotate(0,247.5,104.5)"></rect><rect x="253" y="99" width="11" height="11" transform="rotate(0,258.5,104.5)"></rect><rect x="264" y="99" width="11" height="11" transform="rotate(0,269.5,104.5)"></rect><rect x="275" y="99" width="11" height="11" transform="rotate(0,280.5,104.5)"></rect><rect x="286" y="99" width="11" height="11" transform="rotate(0,291.5,104.5)"></rect><rect x="308" y="99" width="11" height="11" transform="rotate(0,313.5,104.5)"></rect><rect x="0" y="110" width="11" height="11" transform="rotate(0,5.5,115.5)"></rect><rect x="22" y="110" width="11" height="11" transform="rotate(0,27.5,115.5)"></rect><rect x="33" y="110" width="11" height="11" transform="rotate(0,38.5,115.5)"></rect><rect x="55" y="110" width="11" height="11" transform="rotate(0,60.5,115.5)"></rect><rect x="66" y="110" width="11" height="11" transform="rotate(0,71.5,115.5)"></rect><rect x="110" y="110" width="11" height="11" transform="rotate(0,115.5,115.5)"></rect><rect x="121" y="110" width="11" height="11" transform="rotate(0,126.5,115.5)"></rect><rect x="143" y="110" width="11" height="11" transform="rotate(0,148.5,115.5)"></rect><rect x="176" y="110" width="11" height="11" transform="rotate(0,181.5,115.5)"></rect><rect x="187" y="110" width="11" height="11" transform="rotate(0,192.5,115.5)"></rect><rect x="198" y="110" width="11" height="11" transform="rotate(0,203.5,115.5)"></rect><rect x="220" y="110" width="11" height="11" transform="rotate(0,225.5,115.5)"></rect><rect x="231" y="110" width="11" height="11" transform="rotate(0,236.5,115.5)"></rect><rect x="242" y="110" width="11" height="11" transform="rotate(0,247.5,115.5)"></rect><rect x="253" y="110" width="11" height="11" transform="rotate(0,258.5,115.5)"></rect><rect x="275" y="110" width="11" height="11" transform="rotate(0,280.5,115.5)"></rect><rect x="33" y="121" width="11" height="11" transform="rotate(0,38.5,126.5)"></rect><rect x="99" y="121" width="11" height="11" transform="rotate(0,104.5,126.5)"></rect><rect x="110" y="121" width="11" height="11" transform="rotate(0,115.5,126.5)"></rect><rect x="165" y="121" width="11" height="11" transform="rotate(0,170.5,126.5)"></rect><rect x="198" y="121" width="11" height="11" transform="rotate(0,203.5,126.5)"></rect><rect x="209" y="121" width="11" height="11" transform="rotate(0,214.5,126.5)"></rect><rect x="231" y="121" width="11" height="11" transform="rotate(0,236.5,126.5)"></rect><rect x="242" y="121" width="11" height="11" transform="rotate(0,247.5,126.5)"></rect><rect x="253" y="121" width="11" height="11" transform="rotate(0,258.5,126.5)"></rect><rect x="275" y="121" width="11" height="11" transform="rotate(0,280.5,126.5)"></rect><rect x="297" y="121" width="11" height="11" transform="rotate(0,302.5,126.5)"></rect><rect x="0" y="132" width="11" height="11" transform="rotate(0,5.5,137.5)"></rect><rect x="22" y="132" width="11" height="11" transform="rotate(0,27.5,137.5)"></rect><rect x="66" y="132" width="11" height="11" transform="rotate(0,71.5,137.5)"></rect><rect x="77" y="132" width="11" height="11" transform="rotate(0,82.5,137.5)"></rect><rect x="88" y="132" width="11" height="11" transform="rotate(0,93.5,137.5)"></rect><rect x="121" y="132" width="11" height="11" transform="rotate(0,126.5,137.5)"></rect><rect x="132" y="132" width="11" height="11" transform="rotate(0,137.5,137.5)"></rect><rect x="176" y="132" width="11" height="11" transform="rotate(0,181.5,137.5)"></rect><rect x="187" y="132" width="11" height="11" transform="rotate(0,192.5,137.5)"></rect><rect x="220" y="132" width="11" height="11" transform="rotate(0,225.5,137.5)"></rect><rect x="231" y="132" width="11" height="11" transform="rotate(0,236.5,137.5)"></rect><rect x="253" y="132" width="11" height="11" transform="rotate(0,258.5,137.5)"></rect><rect x="286" y="132" width="11" height="11" transform="rotate(0,291.5,137.5)"></rect><rect x="297" y="132" width="11" height="11" transform="rotate(0,302.5,137.5)"></rect><rect x="308" y="132" width="11" height="11" transform="rotate(0,313.5,137.5)"></rect><rect x="0" y="143" width="11" height="11" transform="rotate(0,5.5,148.5)"></rect><rect x="22" y="143" width="11" height="11" transform="rotate(0,27.5,148.5)"></rect><rect x="55" y="143" width="11" height="11" transform="rotate(0,60.5,148.5)"></rect><rect x="77" y="143" width="11" height="11" transform="rotate(0,82.5,148.5)"></rect><rect x="143" y="143" width="11" height="11" transform="rotate(0,148.5,148.5)"></rect><rect x="154" y="143" width="11" height="11" transform="rotate(0,159.5,148.5)"></rect><rect x="165" y="143" width="11" height="11" transform="rotate(0,170.5,148.5)"></rect><rect x="176" y="143" width="11" height="11" transform="rotate(0,181.5,148.5)"></rect><rect x="187" y="143" width="11" height="11" transform="rotate(0,192.5,148.5)"></rect><rect x="198" y="143" width="11" height="11" transform="rotate(0,203.5,148.5)"></rect><rect x="209" y="143" width="11" height="11" transform="rotate(0,214.5,148.5)"></rect><rect x="220" y="143" width="11" height="11" transform="rotate(0,225.5,148.5)"></rect><rect x="231" y="143" width="11" height="11" transform="rotate(0,236.5,148.5)"></rect><rect x="242" y="143" width="11" height="11" transform="rotate(0,247.5,148.5)"></rect><rect x="264" y="143" width="11" height="11" transform="rotate(0,269.5,148.5)"></rect><rect x="275" y="143" width="11" height="11" transform="rotate(0,280.5,148.5)"></rect><rect x="297" y="143" width="11" height="11" transform="rotate(0,302.5,148.5)"></rect><rect x="308" y="143" width="11" height="11" transform="rotate(0,313.5,148.5)"></rect><rect x="33" y="154" width="11" height="11" transform="rotate(0,38.5,159.5)"></rect><rect x="44" y="154" width="11" height="11" transform="rotate(0,49.5,159.5)"></rect><rect x="66" y="154" width="11" height="11" transform="rotate(0,71.5,159.5)"></rect><rect x="88" y="154" width="11" height="11" transform="rotate(0,93.5,159.5)"></rect><rect x="110" y="154" width="11" height="11" transform="rotate(0,115.5,159.5)"></rect><rect x="121" y="154" width="11" height="11" transform="rotate(0,126.5,159.5)"></rect><rect x="132" y="154" width="11" height="11" transform="rotate(0,137.5,159.5)"></rect><rect x="143" y="154" width="11" height="11" transform="rotate(0,148.5,159.5)"></rect><rect x="154" y="154" width="11" height="11" transform="rotate(0,159.5,159.5)"></rect><rect x="165" y="154" width="11" height="11" transform="rotate(0,170.5,159.5)"></rect><rect x="198" y="154" width="11" height="11" transform="rotate(0,203.5,159.5)"></rect><rect x="220" y="154" width="11" height="11" transform="rotate(0,225.5,159.5)"></rect><rect x="231" y="154" width="11" height="11" transform="rotate(0,236.5,159.5)"></rect><rect x="253" y="154" width="11" height="11" transform="rotate(0,258.5,159.5)"></rect><rect x="11" y="165" width="11" height="11" transform="rotate(0,16.5,170.5)"></rect><rect x="55" y="165" width="11" height="11" transform="rotate(0,60.5,170.5)"></rect><rect x="110" y="165" width="11" height="11" transform="rotate(0,115.5,170.5)"></rect><rect x="121" y="165" width="11" height="11" transform="rotate(0,126.5,170.5)"></rect><rect x="143" y="165" width="11" height="11" transform="rotate(0,148.5,170.5)"></rect><rect x="154" y="165" width="11" height="11" transform="rotate(0,159.5,170.5)"></rect><rect x="198" y="165" width="11" height="11" transform="rotate(0,203.5,170.5)"></rect><rect x="220" y="165" width="11" height="11" transform="rotate(0,225.5,170.5)"></rect><rect x="242" y="165" width="11" height="11" transform="rotate(0,247.5,170.5)"></rect><rect x="264" y="165" width="11" height="11" transform="rotate(0,269.5,170.5)"></rect><rect x="275" y="165" width="11" height="11" transform="rotate(0,280.5,170.5)"></rect><rect x="297" y="165" width="11" height="11" transform="rotate(0,302.5,170.5)"></rect><rect x="308" y="165" width="11" height="11" transform="rotate(0,313.5,170.5)"></rect><rect x="11" y="176" width="11" height="11" transform="rotate(0,16.5,181.5)"></rect><rect x="44" y="176" width="11" height="11" transform="rotate(0,49.5,181.5)"></rect><rect x="66" y="176" width="11" height="11" transform="rotate(0,71.5,181.5)"></rect><rect x="77" y="176" width="11" height="11" transform="rotate(0,82.5,181.5)"></rect><rect x="99" y="176" width="11" height="11" transform="rotate(0,104.5,181.5)"></rect><rect x="132" y="176" width="11" height="11" transform="rotate(0,137.5,181.5)"></rect><rect x="143" y="176" width="11" height="11" transform="rotate(0,148.5,181.5)"></rect><rect x="154" y="176" width="11" height="11" transform="rotate(0,159.5,181.5)"></rect><rect x="176" y="176" width="11" height="11" transform="rotate(0,181.5,181.5)"></rect><rect x="187" y="176" width="11" height="11" transform="rotate(0,192.5,181.5)"></rect><rect x="209" y="176" width="11" height="11" transform="rotate(0,214.5,181.5)"></rect><rect x="275" y="176" width="11" height="11" transform="rotate(0,280.5,181.5)"></rect><rect x="286" y="176" width="11" height="11" transform="rotate(0,291.5,181.5)"></rect><rect x="308" y="176" width="11" height="11" transform="rotate(0,313.5,181.5)"></rect><rect x="0" y="187" width="11" height="11" transform="rotate(0,5.5,192.5)"></rect><rect x="11" y="187" width="11" height="11" transform="rotate(0,16.5,192.5)"></rect><rect x="55" y="187" width="11" height="11" transform="rotate(0,60.5,192.5)"></rect><rect x="99" y="187" width="11" height="11" transform="rotate(0,104.5,192.5)"></rect><rect x="121" y="187" width="11" height="11" transform="rotate(0,126.5,192.5)"></rect><rect x="132" y="187" width="11" height="11" transform="rotate(0,137.5,192.5)"></rect><rect x="143" y="187" width="11" height="11" transform="rotate(0,148.5,192.5)"></rect><rect x="154" y="187" width="11" height="11" transform="rotate(0,159.5,192.5)"></rect><rect x="165" y="187" width="11" height="11" transform="rotate(0,170.5,192.5)"></rect><rect x="198" y="187" width="11" height="11" transform="rotate(0,203.5,192.5)"></rect><rect x="209" y="187" width="11" height="11" transform="rotate(0,214.5,192.5)"></rect><rect x="220" y="187" width="11" height="11" transform="rotate(0,225.5,192.5)"></rect><rect x="231" y="187" width="11" height="11" transform="rotate(0,236.5,192.5)"></rect><rect x="242" y="187" width="11" height="11" transform="rotate(0,247.5,192.5)"></rect><rect x="264" y="187" width="11" height="11" transform="rotate(0,269.5,192.5)"></rect><rect x="275" y="187" width="11" height="11" transform="rotate(0,280.5,192.5)"></rect><rect x="286" y="187" width="11" height="11" transform="rotate(0,291.5,192.5)"></rect><rect x="297" y="187" width="11" height="11" transform="rotate(0,302.5,192.5)"></rect><rect x="308" y="187" width="11" height="11" transform="rotate(0,313.5,192.5)"></rect><rect x="0" y="198" width="11" height="11" transform="rotate(0,5.5,203.5)"></rect><rect x="22" y="198" width="11" height="11" transform="rotate(0,27.5,203.5)"></rect><rect x="33" y="198" width="11" height="11" transform="rotate(0,38.5,203.5)"></rect><rect x="44" y="198" width="11" height="11" transform="rotate(0,49.5,203.5)"></rect><rect x="66" y="198" width="11" height="11" transform="rotate(0,71.5,203.5)"></rect><rect x="110" y="198" width="11" height="11" transform="rotate(0,115.5,203.5)"></rect><rect x="121" y="198" width="11" height="11" transform="rotate(0,126.5,203.5)"></rect><rect x="132" y="198" width="11" height="11" transform="rotate(0,137.5,203.5)"></rect><rect x="143" y="198" width="11" height="11" transform="rotate(0,148.5,203.5)"></rect><rect x="154" y="198" width="11" height="11" transform="rotate(0,159.5,203.5)"></rect><rect x="165" y="198" width="11" height="11" transform="rotate(0,170.5,203.5)"></rect><rect x="176" y="198" width="11" height="11" transform="rotate(0,181.5,203.5)"></rect><rect x="187" y="198" width="11" height="11" transform="rotate(0,192.5,203.5)"></rect><rect x="198" y="198" width="11" height="11" transform="rotate(0,203.5,203.5)"></rect><rect x="220" y="198" width="11" height="11" transform="rotate(0,225.5,203.5)"></rect><rect x="242" y="198" width="11" height="11" transform="rotate(0,247.5,203.5)"></rect><rect x="253" y="198" width="11" height="11" transform="rotate(0,258.5,203.5)"></rect><rect x="264" y="198" width="11" height="11" transform="rotate(0,269.5,203.5)"></rect><rect x="275" y="198" width="11" height="11" transform="rotate(0,280.5,203.5)"></rect><rect x="286" y="198" width="11" height="11" transform="rotate(0,291.5,203.5)"></rect><rect x="0" y="209" width="11" height="11" transform="rotate(0,5.5,214.5)"></rect><rect x="22" y="209" width="11" height="11" transform="rotate(0,27.5,214.5)"></rect><rect x="33" y="209" width="11" height="11" transform="rotate(0,38.5,214.5)"></rect><rect x="55" y="209" width="11" height="11" transform="rotate(0,60.5,214.5)"></rect><rect x="88" y="209" width="11" height="11" transform="rotate(0,93.5,214.5)"></rect><rect x="110" y="209" width="11" height="11" transform="rotate(0,115.5,214.5)"></rect><rect x="121" y="209" width="11" height="11" transform="rotate(0,126.5,214.5)"></rect><rect x="132" y="209" width="11" height="11" transform="rotate(0,137.5,214.5)"></rect><rect x="165" y="209" width="11" height="11" transform="rotate(0,170.5,214.5)"></rect><rect x="209" y="209" width="11" height="11" transform="rotate(0,214.5,214.5)"></rect><rect x="220" y="209" width="11" height="11" transform="rotate(0,225.5,214.5)"></rect><rect x="242" y="209" width="11" height="11" transform="rotate(0,247.5,214.5)"></rect><rect x="275" y="209" width="11" height="11" transform="rotate(0,280.5,214.5)"></rect><rect x="297" y="209" width="11" height="11" transform="rotate(0,302.5,214.5)"></rect><rect x="308" y="209" width="11" height="11" transform="rotate(0,313.5,214.5)"></rect><rect x="0" y="220" width="11" height="11" transform="rotate(0,5.5,225.5)"></rect><rect x="44" y="220" width="11" height="11" transform="rotate(0,49.5,225.5)"></rect><rect x="55" y="220" width="11" height="11" transform="rotate(0,60.5,225.5)"></rect><rect x="66" y="220" width="11" height="11" transform="rotate(0,71.5,225.5)"></rect><rect x="132" y="220" width="11" height="11" transform="rotate(0,137.5,225.5)"></rect><rect x="143" y="220" width="11" height="11" transform="rotate(0,148.5,225.5)"></rect><rect x="154" y="220" width="11" height="11" transform="rotate(0,159.5,225.5)"></rect><rect x="165" y="220" width="11" height="11" transform="rotate(0,170.5,225.5)"></rect><rect x="187" y="220" width="11" height="11" transform="rotate(0,192.5,225.5)"></rect><rect x="220" y="220" width="11" height="11" transform="rotate(0,225.5,225.5)"></rect><rect x="231" y="220" width="11" height="11" transform="rotate(0,236.5,225.5)"></rect><rect x="242" y="220" width="11" height="11" transform="rotate(0,247.5,225.5)"></rect><rect x="253" y="220" width="11" height="11" transform="rotate(0,258.5,225.5)"></rect><rect x="264" y="220" width="11" height="11" transform="rotate(0,269.5,225.5)"></rect><rect x="286" y="220" width="11" height="11" transform="rotate(0,291.5,225.5)"></rect><rect x="308" y="220" width="11" height="11" transform="rotate(0,313.5,225.5)"></rect><rect x="88" y="231" width="11" height="11" transform="rotate(0,93.5,236.5)"></rect><rect x="110" y="231" width="11" height="11" transform="rotate(0,115.5,236.5)"></rect><rect x="121" y="231" width="11" height="11" transform="rotate(0,126.5,236.5)"></rect><rect x="143" y="231" width="11" height="11" transform="rotate(0,148.5,236.5)"></rect><rect x="154" y="231" width="11" height="11" transform="rotate(0,159.5,236.5)"></rect><rect x="176" y="231" width="11" height="11" transform="rotate(0,181.5,236.5)"></rect><rect x="198" y="231" width="11" height="11" transform="rotate(0,203.5,236.5)"></rect><rect x="220" y="231" width="11" height="11" transform="rotate(0,225.5,236.5)"></rect><rect x="264" y="231" width="11" height="11" transform="rotate(0,269.5,236.5)"></rect><rect x="275" y="231" width="11" height="11" transform="rotate(0,280.5,236.5)"></rect><rect x="297" y="231" width="11" height="11" transform="rotate(0,302.5,236.5)"></rect><rect x="308" y="231" width="11" height="11" transform="rotate(0,313.5,236.5)"></rect><rect x="88" y="242" width="11" height="11" transform="rotate(0,93.5,247.5)"></rect><rect x="110" y="242" width="11" height="11" transform="rotate(0,115.5,247.5)"></rect><rect x="121" y="242" width="11" height="11" transform="rotate(0,126.5,247.5)"></rect><rect x="132" y="242" width="11" height="11" transform="rotate(0,137.5,247.5)"></rect><rect x="165" y="242" width="11" height="11" transform="rotate(0,170.5,247.5)"></rect><rect x="209" y="242" width="11" height="11" transform="rotate(0,214.5,247.5)"></rect><rect x="220" y="242" width="11" height="11" transform="rotate(0,225.5,247.5)"></rect><rect x="242" y="242" width="11" height="11" transform="rotate(0,247.5,247.5)"></rect><rect x="264" y="242" width="11" height="11" transform="rotate(0,269.5,247.5)"></rect><rect x="297" y="242" width="11" height="11" transform="rotate(0,302.5,247.5)"></rect><rect x="88" y="253" width="11" height="11" transform="rotate(0,93.5,258.5)"></rect><rect x="143" y="253" width="11" height="11" transform="rotate(0,148.5,258.5)"></rect><rect x="165" y="253" width="11" height="11" transform="rotate(0,170.5,258.5)"></rect><rect x="176" y="253" width="11" height="11" transform="rotate(0,181.5,258.5)"></rect><rect x="209" y="253" width="11" height="11" transform="rotate(0,214.5,258.5)"></rect><rect x="220" y="253" width="11" height="11" transform="rotate(0,225.5,258.5)"></rect><rect x="264" y="253" width="11" height="11" transform="rotate(0,269.5,258.5)"></rect><rect x="275" y="253" width="11" height="11" transform="rotate(0,280.5,258.5)"></rect><rect x="88" y="264" width="11" height="11" transform="rotate(0,93.5,269.5)"></rect><rect x="110" y="264" width="11" height="11" transform="rotate(0,115.5,269.5)"></rect><rect x="121" y="264" width="11" height="11" transform="rotate(0,126.5,269.5)"></rect><rect x="132" y="264" width="11" height="11" transform="rotate(0,137.5,269.5)"></rect><rect x="154" y="264" width="11" height="11" transform="rotate(0,159.5,269.5)"></rect><rect x="165" y="264" width="11" height="11" transform="rotate(0,170.5,269.5)"></rect><rect x="198" y="264" width="11" height="11" transform="rotate(0,203.5,269.5)"></rect><rect x="220" y="264" width="11" height="11" transform="rotate(0,225.5,269.5)"></rect><rect x="231" y="264" width="11" height="11" transform="rotate(0,236.5,269.5)"></rect><rect x="242" y="264" width="11" height="11" transform="rotate(0,247.5,269.5)"></rect><rect x="253" y="264" width="11" height="11" transform="rotate(0,258.5,269.5)"></rect><rect x="264" y="264" width="11" height="11" transform="rotate(0,269.5,269.5)"></rect><rect x="275" y="264" width="11" height="11" transform="rotate(0,280.5,269.5)"></rect><rect x="286" y="264" width="11" height="11" transform="rotate(0,291.5,269.5)"></rect><rect x="88" y="275" width="11" height="11" transform="rotate(0,93.5,280.5)"></rect><rect x="110" y="275" width="11" height="11" transform="rotate(0,115.5,280.5)"></rect><rect x="132" y="275" width="11" height="11" transform="rotate(0,137.5,280.5)"></rect><rect x="165" y="275" width="11" height="11" transform="rotate(0,170.5,280.5)"></rect><rect x="176" y="275" width="11" height="11" transform="rotate(0,181.5,280.5)"></rect><rect x="187" y="275" width="11" height="11" transform="rotate(0,192.5,280.5)"></rect><rect x="198" y="275" width="11" height="11" transform="rotate(0,203.5,280.5)"></rect><rect x="209" y="275" width="11" height="11" transform="rotate(0,214.5,280.5)"></rect><rect x="220" y="275" width="11" height="11" transform="rotate(0,225.5,280.5)"></rect><rect x="231" y="275" width="11" height="11" transform="rotate(0,236.5,280.5)"></rect><rect x="253" y="275" width="11" height="11" transform="rotate(0,258.5,280.5)"></rect><rect x="88" y="286" width="11" height="11" transform="rotate(0,93.5,291.5)"></rect><rect x="110" y="286" width="11" height="11" transform="rotate(0,115.5,291.5)"></rect><rect x="121" y="286" width="11" height="11" transform="rotate(0,126.5,291.5)"></rect><rect x="132" y="286" width="11" height="11" transform="rotate(0,137.5,291.5)"></rect><rect x="143" y="286" width="11" height="11" transform="rotate(0,148.5,291.5)"></rect><rect x="187" y="286" width="11" height="11" transform="rotate(0,192.5,291.5)"></rect><rect x="209" y="286" width="11" height="11" transform="rotate(0,214.5,291.5)"></rect><rect x="220" y="286" width="11" height="11" transform="rotate(0,225.5,291.5)"></rect><rect x="231" y="286" width="11" height="11" transform="rotate(0,236.5,291.5)"></rect><rect x="242" y="286" width="11" height="11" transform="rotate(0,247.5,291.5)"></rect><rect x="253" y="286" width="11" height="11" transform="rotate(0,258.5,291.5)"></rect><rect x="264" y="286" width="11" height="11" transform="rotate(0,269.5,291.5)"></rect><rect x="286" y="286" width="11" height="11" transform="rotate(0,291.5,291.5)"></rect><rect x="297" y="286" width="11" height="11" transform="rotate(0,302.5,291.5)"></rect><rect x="88" y="297" width="11" height="11" transform="rotate(0,93.5,302.5)"></rect><rect x="99" y="297" width="11" height="11" transform="rotate(0,104.5,302.5)"></rect><rect x="121" y="297" width="11" height="11" transform="rotate(0,126.5,302.5)"></rect><rect x="154" y="297" width="11" height="11" transform="rotate(0,159.5,302.5)"></rect><rect x="176" y="297" width="11" height="11" transform="rotate(0,181.5,302.5)"></rect><rect x="209" y="297" width="11" height="11" transform="rotate(0,214.5,302.5)"></rect><rect x="220" y="297" width="11" height="11" transform="rotate(0,225.5,302.5)"></rect><rect x="264" y="297" width="11" height="11" transform="rotate(0,269.5,302.5)"></rect><rect x="275" y="297" width="11" height="11" transform="rotate(0,280.5,302.5)"></rect><rect x="297" y="297" width="11" height="11" transform="rotate(0,302.5,302.5)"></rect><rect x="99" y="308" width="11" height="11" transform="rotate(0,104.5,313.5)"></rect><rect x="110" y="308" width="11" height="11" transform="rotate(0,115.5,313.5)"></rect><rect x="121" y="308" width="11" height="11" transform="rotate(0,126.5,313.5)"></rect><rect x="132" y="308" width="11" height="11" transform="rotate(0,137.5,313.5)"></rect><rect x="187" y="308" width="11" height="11" transform="rotate(0,192.5,313.5)"></rect><rect x="231" y="308" width="11" height="11" transform="rotate(0,236.5,313.5)"></rect><rect x="242" y="308" width="11" height="11" transform="rotate(0,247.5,313.5)"></rect><rect x="264" y="308" width="11" height="11" transform="rotate(0,269.5,313.5)"></rect><rect x="286" y="308" width="11" height="11" transform="rotate(0,291.5,313.5)"></rect></g><g id="clip-path-corners-square-color-0-0-23" fill="#000000"><rect x="0" y="0" width="11" height="11" transform="rotate(0,5.5,5.5)"></rect><rect x="11" y="0" width="11" height="11" transform="rotate(0,16.5,5.5)"></rect><rect x="22" y="0" width="11" height="11" transform="rotate(0,27.5,5.5)"></rect><rect x="33" y="0" width="11" height="11" transform="rotate(0,38.5,5.5)"></rect><rect x="44" y="0" width="11" height="11" transform="rotate(0,49.5,5.5)"></rect><rect x="55" y="0" width="11" height="11" transform="rotate(0,60.5,5.5)"></rect><rect x="66" y="0" width="11" height="11" transform="rotate(0,71.5,5.5)"></rect><rect x="0" y="11" width="11" height="11" transform="rotate(0,5.5,16.5)"></rect><rect x="66" y="11" width="11" height="11" transform="rotate(0,71.5,16.5)"></rect><rect x="0" y="22" width="11" height="11" transform="rotate(0,5.5,27.5)"></rect><rect x="66" y="22" width="11" height="11" transform="rotate(0,71.5,27.5)"></rect><rect x="0" y="33" width="11" height="11" transform="rotate(0,5.5,38.5)"></rect><rect x="66" y="33" width="11" height="11" transform="rotate(0,71.5,38.5)"></rect><rect x="0" y="44" width="11" height="11" transform="rotate(0,5.5,49.5)"></rect><rect x="66" y="44" width="11" height="11" transform="rotate(0,71.5,49.5)"></rect><rect x="0" y="55" width="11" height="11" transform="rotate(0,5.5,60.5)"></rect><rect x="66" y="55" width="11" height="11" transform="rotate(0,71.5,60.5)"></rect><rect x="0" y="66" width="11" height="11" transform="rotate(0,5.5,71.5)"></rect><rect x="11" y="66" width="11" height="11" transform="rotate(0,16.5,71.5)"></rect><rect x="22" y="66" width="11" height="11" transform="rotate(0,27.5,71.5)"></rect><rect x="33" y="66" width="11" height="11" transform="rotate(0,38.5,71.5)"></rect><rect x="44" y="66" width="11" height="11" transform="rotate(0,49.5,71.5)"></rect><rect x="55" y="66" width="11" height="11" transform="rotate(0,60.5,71.5)"></rect><rect x="66" y="66" width="11" height="11" transform="rotate(0,71.5,71.5)"></rect></g><g id="clip-path-corners-dot-color-0-0-23" fill="#000000"><rect x="22" y="22" width="11" height="11" transform="rotate(0,27.5,27.5)"></rect><rect x="33" y="22" width="11" height="11" transform="rotate(0,38.5,27.5)"></rect><rect x="44" y="22" width="11" height="11" transform="rotate(0,49.5,27.5)"></rect><rect x="22" y="33" width="11" height="11" transform="rotate(0,27.5,38.5)"></rect><rect x="33" y="33" width="11" height="11" transform="rotate(0,38.5,38.5)"></rect><rect x="44" y="33" width="11" height="11" transform="rotate(0,49.5,38.5)"></rect><rect x="22" y="44" width="11" height="11" transform="rotate(0,27.5,49.5)"></rect><rect x="33" y="44" width="11" height="11" transform="rotate(0,38.5,49.5)"></rect><rect x="44" y="44" width="11" height="11" transform="rotate(0,49.5,49.5)"></rect></g><g id="clip-path-corners-square-color-1-0-23" fill="#000000"><rect x="242" y="0" width="11" height="11" transform="rotate(0,247.5,5.5)"></rect><rect x="253" y="0" width="11" height="11" transform="rotate(0,258.5,5.5)"></rect><rect x="264" y="0" width="11" height="11" transform="rotate(0,269.5,5.5)"></rect><rect x="275" y="0" width="11" height="11" transform="rotate(0,280.5,5.5)"></rect><rect x="286" y="0" width="11" height="11" transform="rotate(0,291.5,5.5)"></rect><rect x="297" y="0" width="11" height="11" transform="rotate(0,302.5,5.5)"></rect><rect x="308" y="0" width="11" height="11" transform="rotate(0,313.5,5.5)"></rect><rect x="242" y="11" width="11" height="11" transform="rotate(0,247.5,16.5)"></rect><rect x="308" y="11" width="11" height="11" transform="rotate(0,313.5,16.5)"></rect><rect x="242" y="22" width="11" height="11" transform="rotate(0,247.5,27.5)"></rect><rect x="308" y="22" width="11" height="11" transform="rotate(0,313.5,27.5)"></rect><rect x="242" y="33" width="11" height="11" transform="rotate(0,247.5,38.5)"></rect><rect x="308" y="33" width="11" height="11" transform="rotate(0,313.5,38.5)"></rect><rect x="242" y="44" width="11" height="11" transform="rotate(0,247.5,49.5)"></rect><rect x="308" y="44" width="11" height="11" transform="rotate(0,313.5,49.5)"></rect><rect x="242" y="55" width="11" height="11" transform="rotate(0,247.5,60.5)"></rect><rect x="308" y="55" width="11" height="11" transform="rotate(0,313.5,60.5)"></rect><rect x="242" y="66" width="11" height="11" transform="rotate(0,247.5,71.5)"></rect><rect x="253" y="66" width="11" height="11" transform="rotate(0,258.5,71.5)"></rect><rect x="264" y="66" width="11" height="11" transform="rotate(0,269.5,71.5)"></rect><rect x="275" y="66" width="11" height="11" transform="rotate(0,280.5,71.5)"></rect><rect x="286" y="66" width="11" height="11" transform="rotate(0,291.5,71.5)"></rect><rect x="297" y="66" width="11" height="11" transform="rotate(0,302.5,71.5)"></rect><rect x="308" y="66" width="11" height="11" transform="rotate(0,313.5,71.5)"></rect></g><g id="clip-path-corners-dot-color-1-0-23" fill="#000000"><rect x="264" y="22" width="11" height="11" transform="rotate(0,269.5,27.5)"></rect><rect x="275" y="22" width="11" height="11" transform="rotate(0,280.5,27.5)"></rect><rect x="286" y="22" width="11" height="11" transform="rotate(0,291.5,27.5)"></rect><rect x="264" y="33" width="11" height="11" transform="rotate(0,269.5,38.5)"></rect><rect x="275" y="33" width="11" height="11" transform="rotate(0,280.5,38.5)"></rect><rect x="286" y="33" width="11" height="11" transform="rotate(0,291.5,38.5)"></rect><rect x="264" y="44" width="11" height="11" transform="rotate(0,269.5,49.5)"></rect><rect x="275" y="44" width="11" height="11" transform="rotate(0,280.5,49.5)"></rect><rect x="286" y="44" width="11" height="11" transform="rotate(0,291.5,49.5)"></rect></g><g id="clip-path-corners-square-color-0-1-23" fill="#000000"><rect x="0" y="242" width="11" height="11" transform="rotate(0,5.5,247.5)"></rect><rect x="11" y="242" width="11" height="11" transform="rotate(0,16.5,247.5)"></rect><rect x="22" y="242" width="11" height="11" transform="rotate(0,27.5,247.5)"></rect><rect x="33" y="242" width="11" height="11" transform="rotate(0,38.5,247.5)"></rect><rect x="44" y="242" width="11" height="11" transform="rotate(0,49.5,247.5)"></rect><rect x="55" y="242" width="11" height="11" transform="rotate(0,60.5,247.5)"></rect><rect x="66" y="242" width="11" height="11" transform="rotate(0,71.5,247.5)"></rect><rect x="0" y="253" width="11" height="11" transform="rotate(0,5.5,258.5)"></rect><rect x="66" y="253" width="11" height="11" transform="rotate(0,71.5,258.5)"></rect><rect x="0" y="264" width="11" height="11" transform="rotate(0,5.5,269.5)"></rect><rect x="66" y="264" width="11" height="11" transform="rotate(0,71.5,269.5)"></rect><rect x="0" y="275" width="11" height="11" transform="rotate(0,5.5,280.5)"></rect><rect x="66" y="275" width="11" height="11" transform="rotate(0,71.5,280.5)"></rect><rect x="0" y="286" width="11" height="11" transform="rotate(0,5.5,291.5)"></rect><rect x="66" y="286" width="11" height="11" transform="rotate(0,71.5,291.5)"></rect><rect x="0" y="297" width="11" height="11" transform="rotate(0,5.5,302.5)"></rect><rect x="66" y="297" width="11" height="11" transform="rotate(0,71.5,302.5)"></rect><rect x="0" y="308" width="11" height="11" transform="rotate(0,5.5,313.5)"></rect><rect x="11" y="308" width="11" height="11" transform="rotate(0,16.5,313.5)"></rect><rect x="22" y="308" width="11" height="11" transform="rotate(0,27.5,313.5)"></rect><rect x="33" y="308" width="11" height="11" transform="rotate(0,38.5,313.5)"></rect><rect x="44" y="308" width="11" height="11" transform="rotate(0,49.5,313.5)"></rect><rect x="55" y="308" width="11" height="11" transform="rotate(0,60.5,313.5)"></rect><rect x="66" y="308" width="11" height="11" transform="rotate(0,71.5,313.5)"></rect></g><g id="clip-path-corners-dot-color-0-1-23" fill="#000000"><rect x="22" y="264" width="11" height="11" transform="rotate(0,27.5,269.5)"></rect><rect x="33" y="264" width="11" height="11" transform="rotate(0,38.5,269.5)"></rect><rect x="44" y="264" width="11" height="11" transform="rotate(0,49.5,269.5)"></rect><rect x="22" y="275" width="11" height="11" transform="rotate(0,27.5,280.5)"></rect><rect x="33" y="275" width="11" height="11" transform="rotate(0,38.5,280.5)"></rect><rect x="44" y="275" width="11" height="11" transform="rotate(0,49.5,280.5)"></rect><rect x="22" y="286" width="11" height="11" transform="rotate(0,27.5,291.5)"></rect><rect x="33" y="286" width="11" height="11" transform="rotate(0,38.5,291.5)"></rect><rect x="44" y="286" width="11" height="11" transform="rotate(0,49.5,291.5)"></rect></g></svg>
